<svg width="48.000000" height="48.000000" viewBox="0 0 48 48" fill="none" xmlns="http://www.w3.org/2000/svg" xmlns:xlink="http://www.w3.org/1999/xlink">
	<desc>
			Created with Pixso.
	</desc>
	<defs>
		<clipPath id="clip81_4736">
			<rect id="32icon-grid" rx="0.000000" width="47.000000" height="47.000000" transform="translate(0.500000 0.500000)" fill="white" fill-opacity="0"/>
		</clipPath>
		<clipPath id="clip81_4765">
			<rect id="32/Broken-Cloudy" rx="0.000000" width="47.000000" height="47.000000" transform="translate(0.500000 0.500000)" fill="white" fill-opacity="0"/>
		</clipPath>
	</defs>
	<g clip-path="url(#clip81_4765)">
		<path id="outline" d="M17.29 12.08C17.82 12.02 18.36 12 18.91 12C26.2 12 32.34 17.08 34.23 24.02C34.38 24.01 34.53 24 34.68 24C34.62 24 34.56 24 34.5 24L34.44 24L34.44 24L36.75 24L36.84 24L36.84 23.99C39.69 23.95 42 21.61 42 18.75C42 15.85 39.64 13.5 36.75 13.5C35.77 13.5 34.86 13.76 34.08 14.22C34.08 13.38 33.95 12.58 33.71 11.81C32.55 8.43 29.33 6 25.55 6C21.67 6 18.38 8.56 17.29 12.08ZM40.76 25.95C43.32 27.86 45 30.97 45 34.5C45 40.29 40.46 44.99 34.87 44.99C34.74 44.99 34.62 44.99 34.5 44.99L34.5 45L19.15 45L19.15 44.99C19.07 44.99 18.99 45 18.91 45C10.12 45 3 37.61 3 28.5C3 21.14 7.64 14.9 14.06 12.78C14.95 7.23 19.75 3 25.55 3C30.52 3 34.76 6.11 36.43 10.5C36.53 10.5 36.64 10.5 36.75 10.5C41.3 10.5 45 14.19 45 18.75C45 21.84 43.29 24.54 40.76 25.95ZM34.5 42L19.15 42L18.97 42L18.97 41.99L18.91 42C11.88 42 6 36.05 6 28.5C6 20.94 11.88 15 18.91 15C24.87 15 30.01 19.27 31.43 25.18L31.43 25.18C31.64 26 31.76 26.85 31.81 27.72C32.75 27.25 33.79 27 34.87 27C38.7 27 42 30.25 42 34.5C42 38.71 38.75 41.95 34.95 41.99L34.95 42L34.5 42Z" fill="#FFFFFF" fill-opacity="1.000000" fill-rule="evenodd"/>
	</g>
</svg>
