<svg width="48.000000" height="48.000000" viewBox="0 0 48 48" fill="none" xmlns="http://www.w3.org/2000/svg" xmlns:xlink="http://www.w3.org/1999/xlink">
	<desc>
			Created with Pixso.
	</desc>
	<defs>
		<clipPath id="clip81_5384">
			<rect id="32icon-grid" rx="0.000000" width="47.000000" height="47.000000" transform="translate(0.500000 0.500000)" fill="white" fill-opacity="0"/>
		</clipPath>
		<clipPath id="clip81_5405">
			<rect id="32/Fog" rx="0.000000" width="47.000000" height="47.000000" transform="translate(0.500000 0.500000)" fill="white" fill-opacity="0"/>
		</clipPath>
	</defs>
	<g clip-path="url(#clip81_5405)">
		<path id="outline" d="M42 25.66C42 29.07 39.78 31.93 36.75 32.89L36.75 35.99C41.46 34.96 45 30.72 45 25.66C45 19.81 40.29 15.08 34.5 15.08C34.2 15.08 33.9 15.09 33.61 15.11C31.46 8.93 25.62 4.5 18.75 4.5C10.05 4.5 3 11.6 3 20.37C3 26.99 7.02 32.67 12.75 35.05L12.75 31.73C8.73 29.56 6 25.3 6 20.37C6 13.24 11.73 7.5 18.75 7.5C24.18 7.5 28.84 10.94 30.67 15.8L30.68 15.8C31.03 16.73 31.27 17.72 31.4 18.75C32.34 18.32 33.39 18.08 34.5 18.08C38.62 18.08 42 21.45 42 25.66ZM34.5 27L19.5 27L19.5 30L34.5 30L34.5 27ZM31.5 33L16.5 33L16.5 36L31.5 36L31.5 33ZM19.5 39L34.5 39L34.5 42L19.5 42L19.5 39Z" fill="#FFFFFF" fill-opacity="1.000000" fill-rule="evenodd"/>
	</g>
</svg>
