<svg width="48.000000" height="48.000000" viewBox="0 0 48 48" fill="none" xmlns="http://www.w3.org/2000/svg" xmlns:xlink="http://www.w3.org/1999/xlink">
	<desc>
			Created with Pixso.
	</desc>
	<defs>
		<clipPath id="clip81_5025">
			<rect id="32icon-grid" rx="0.000000" width="47.000000" height="47.000000" transform="translate(0.500000 0.500000)" fill="white" fill-opacity="0"/>
		</clipPath>
		<clipPath id="clip81_5053">
			<rect id="32/Few-Clouds" rx="0.000000" width="47.000000" height="47.000000" transform="translate(0.500000 0.500000)" fill="white" fill-opacity="0"/>
		</clipPath>
	</defs>
	<g clip-path="url(#clip81_5053)">
		<path id="outline" d="M22.5 7.5L22.5 3L25.5 3L25.5 7.5L22.5 7.5ZM34.29 32.73C35.35 34.03 36 35.69 36 37.49C36 41.64 32.64 44.99 28.5 44.99L28.44 44.99L17.3 44.99L17.3 44.99L17.25 44.99C11.03 44.99 6 39.96 6 33.74C6 30.06 7.77 26.78 10.51 24.73C10.5 24.49 10.5 24.24 10.5 24C10.5 16.54 16.54 10.5 24 10.5C31.45 10.5 37.5 16.54 37.5 24C37.5 27.33 36.29 30.38 34.29 32.73ZM31.96 30.84C30.92 30.3 29.74 29.99 28.5 29.99C27.23 29.99 26.03 30.31 24.98 30.87C25.32 31.76 25.5 32.73 25.5 33.75C25.5 33.88 25.5 34.01 25.49 34.14C26.29 33.43 27.34 32.99 28.5 32.99C30.98 32.99 33 35.01 33 37.49C33 39.98 30.98 41.99 28.5 41.99L28.5 41.99L28.45 41.99L28.39 41.99L17.37 41.99C17.33 41.99 17.29 41.99 17.25 41.99C12.69 41.99 9 38.3 9 33.74C9 29.19 12.69 25.49 17.25 25.49C20.79 25.49 23.81 27.73 24.98 30.87C25.85 30.4 26.83 30.11 27.86 30.02C26.33 25.64 22.15 22.49 17.25 22.49C15.94 22.49 14.69 22.72 13.53 23.12C13.97 17.73 18.49 13.5 24 13.5C29.79 13.5 34.5 18.2 34.5 24C34.5 26.61 33.54 29 31.96 30.84ZM45 22.5L40.5 22.5L40.5 25.5L45 25.5L45 22.5ZM37.53 14.45L41.43 12.2L42.93 14.79L39.03 17.04L37.53 14.45ZM33.2 5.06L30.95 8.96L33.54 10.46L35.79 6.56L33.2 5.06ZM14.45 10.46L12.2 6.56L14.79 5.06L17.04 8.96L14.45 10.46ZM5.06 14.79L8.96 17.04L10.46 14.45L6.56 12.2L5.06 14.79ZM3 22.5L7.5 22.5L7.5 25.5L3 25.5L3 22.5ZM37.53 33.54L41.43 35.79L42.93 33.2L39.03 30.95L37.53 33.54Z" fill="#FFFFFF" fill-opacity="1.000000" fill-rule="evenodd"/>
	</g>
</svg>
