<svg width="48.000000" height="48.000000" viewBox="0 0 48 48" fill="none" xmlns="http://www.w3.org/2000/svg" xmlns:xlink="http://www.w3.org/1999/xlink">
	<desc>
			Created with Pixso.
	</desc>
	<defs>
		<clipPath id="clip81_5164">
			<rect id="32icon-grid" rx="0.000000" width="47.000000" height="47.000000" transform="translate(0.500000 0.500000)" fill="white" fill-opacity="0"/>
		</clipPath>
		<clipPath id="clip81_5187">
			<rect id="32/Rain&amp;Sun" rx="0.000000" width="47.000000" height="47.000000" transform="translate(0.500000 0.500000)" fill="white" fill-opacity="0"/>
		</clipPath>
	</defs>
	<g clip-path="url(#clip81_5187)">
		<path id="outline" d="M45 25.5C45 30.9 41.06 35.35 36 35.93L36 32.9C39.33 32.34 42 29.32 42 25.5C42 21.25 38.7 18 34.87 18C33.79 18 32.75 18.25 31.81 18.72C31.76 17.85 31.64 17 31.43 16.18L31.43 16.18C30.01 10.27 24.87 6 18.91 6C11.88 6 6 11.94 6 19.5C6 25.59 9.82 30.64 15 32.36L15 35.49C8.1 33.68 3 27.21 3 19.5C3 10.38 10.12 3 18.91 3C21.99 3 24.87 3.9 27.3 5.48C29.17 3.93 31.57 3 34.19 3C40.16 3 45 7.83 45 13.8C45 15.95 44.36 17.96 43.28 19.64C44.36 21.32 45 23.33 45 25.5ZM41.18 17.28C41.7 16.23 42 15.05 42 13.8C42 9.49 38.5 6 34.19 6C32.53 6 30.99 6.51 29.73 7.4C31.84 9.43 33.42 12.06 34.23 15.02C34.44 15 34.65 15 34.87 15C37.25 15 39.45 15.85 41.18 17.28ZM21 41.18C21 41.68 20.61 42 20.25 42C19.88 42 19.5 41.68 19.5 41.18C19.5 40.54 19.76 39.66 20.21 38.69C20.36 39 20.49 39.32 20.61 39.62C20.9 40.38 21 40.9 21 41.18ZM20.25 33C20.25 33 19.35 34.09 18.43 35.63C17.48 37.24 16.5 39.34 16.5 41.18C16.5 43.29 18.18 45 20.25 45C22.32 45 24 43.29 24 41.18C24 39.5 22.97 37.34 21.99 35.66C21.1 34.13 20.25 33 20.25 33ZM29.25 37.5C29.61 37.5 30 37.18 30 36.68C30 36.4 29.9 35.88 29.61 35.12C29.49 34.82 29.36 34.5 29.21 34.19C28.76 35.16 28.5 36.04 28.5 36.68C28.5 37.18 28.88 37.5 29.25 37.5ZM27.43 31.13C28.35 29.59 29.25 28.5 29.25 28.5C29.25 28.5 30.1 29.63 30.99 31.16C31.97 32.84 33 35 33 36.68C33 38.79 31.32 40.5 29.25 40.5C27.18 40.5 25.5 38.79 25.5 36.68C25.5 34.84 26.48 32.74 27.43 31.13Z" fill="#FFFFFF" fill-opacity="1.000000" fill-rule="evenodd"/>
	</g>
</svg>
