<svg width="48.000000" height="48.000000" viewBox="0 0 48 48" fill="none" xmlns="http://www.w3.org/2000/svg" xmlns:xlink="http://www.w3.org/1999/xlink">
	<desc>
			Created with Pixso.
	</desc>
	<defs>
		<clipPath id="clip81_4881">
			<rect id="32icon-grid" rx="0.000000" width="47.000000" height="47.000000" transform="translate(0.500000 0.500000)" fill="white" fill-opacity="0"/>
		</clipPath>
		<clipPath id="clip81_4909">
			<rect id="32/Scaterred-Clouds" rx="0.000000" width="47.000000" height="47.000000" transform="translate(0.500000 0.500000)" fill="white" fill-opacity="0"/>
		</clipPath>
	</defs>
	<g clip-path="url(#clip81_4909)">
		<path id="outline" d="M19.15 44.99C19.07 44.99 18.99 45 18.91 45C10.12 45 3 37.61 3 28.5C3 19.38 10.12 12 18.91 12C26.2 12 32.34 17.08 34.23 24.02C34.44 24 34.65 24 34.87 24C40.46 24 45 28.7 45 34.5C45 40.29 40.46 44.99 34.87 44.99C34.74 44.99 34.62 44.99 34.5 44.99L34.5 45L19.15 45L19.15 44.99ZM34.95 42C38.75 41.95 42 38.71 42 34.5C42 30.25 38.7 27 34.87 27C33.79 27 32.75 27.25 31.81 27.72C31.76 26.85 31.64 26 31.43 25.18L31.43 25.18C30.01 19.27 24.87 15 18.91 15C11.88 15 6 20.94 6 28.5C6 36.05 11.88 42 18.91 42L18.97 41.99L34.95 42Z" fill="#FFFFFF" fill-opacity="1.000000" fill-rule="evenodd"/>
	</g>
</svg>
