<svg width="48.000000" height="48.000000" viewBox="0 0 48 48" fill="none" xmlns="http://www.w3.org/2000/svg" xmlns:xlink="http://www.w3.org/1999/xlink">
	<desc>
			Created with Pixso.
	</desc>
	<defs>
		<clipPath id="clip81_4603">
			<rect id="32icon-grid" rx="0.000000" width="47.000000" height="47.000000" transform="translate(0.500000 0.500000)" fill="white" fill-opacity="0"/>
		</clipPath>
		<clipPath id="clip81_4619">
			<rect id="32/Sunny" rx="0.000000" width="47.000000" height="47.000000" transform="translate(0.500000 0.500000)" fill="white" fill-opacity="0"/>
		</clipPath>
	</defs>
	<g clip-path="url(#clip81_4619)">
		<path id="outline" d="M22.5 7.5L22.5 3L25.5 3L25.5 7.5L22.5 7.5ZM30.95 8.96L33.2 5.06L35.79 6.56L33.54 10.46L30.95 8.96ZM24 34.5C29.79 34.5 34.5 29.79 34.5 24C34.5 18.2 29.79 13.5 24 13.5C18.2 13.5 13.5 18.2 13.5 24C13.5 29.79 18.2 34.5 24 34.5ZM24 37.5C31.45 37.5 37.5 31.45 37.5 24C37.5 16.54 31.45 10.5 24 10.5C16.54 10.5 10.5 16.54 10.5 24C10.5 31.45 16.54 37.5 24 37.5ZM40.5 22.5L45 22.5L45 25.5L40.5 25.5L40.5 22.5ZM41.43 12.2L37.53 14.45L39.03 17.04L42.93 14.79L41.43 12.2ZM12.2 6.56L14.45 10.46L17.04 8.96L14.79 5.06L12.2 6.56ZM8.96 17.04L5.06 14.79L6.56 12.2L10.46 14.45L8.96 17.04ZM22.5 40.5L22.5 45L25.5 45L25.5 40.5L22.5 40.5ZM7.5 22.5L3 22.5L3 25.5L7.5 25.5L7.5 22.5ZM5.06 33.2L8.96 30.95L10.46 33.54L6.56 35.79L5.06 33.2ZM14.45 37.53L12.2 41.43L14.79 42.93L17.04 39.03L14.45 37.53ZM33.2 42.93L30.95 39.03L33.54 37.53L35.79 41.43L33.2 42.93ZM37.53 33.54L41.43 35.79L42.93 33.2L39.03 30.95L37.53 33.54Z" fill="#FFFFFF" fill-opacity="1.000000" fill-rule="evenodd"/>
	</g>
</svg>
