<svg width="48.000000" height="48.000000" viewBox="0 0 48 48" fill="none" xmlns="http://www.w3.org/2000/svg" xmlns:xlink="http://www.w3.org/1999/xlink">
	<desc>
			Created with Pixso.
	</desc>
	<defs>
		<clipPath id="clip81_4473">
			<rect id="32icon-grid" rx="0.000000" width="47.000000" height="47.000000" transform="translate(0.500000 0.500000)" fill="white" fill-opacity="0"/>
		</clipPath>
		<clipPath id="clip81_4499">
			<rect id="32/Shower-Rain&amp;Sun" rx="0.000000" width="47.000000" height="47.000000" transform="translate(0.500000 0.500000)" fill="white" fill-opacity="0"/>
		</clipPath>
	</defs>
	<g clip-path="url(#clip81_4499)">
		<path id="outline" d="M37.5 35.64C41.81 34.44 45 30.35 45 25.5C45 23.33 44.36 21.32 43.28 19.64C44.36 17.96 45 15.95 45 13.8C45 7.83 40.16 3 34.19 3C31.57 3 29.17 3.93 27.3 5.48C24.87 3.9 21.99 3 18.91 3C10.12 3 3 10.38 3 19.5C3 26.04 6.67 31.69 12 34.36L12 30.9C8.41 28.52 6 24.34 6 19.5C6 11.94 11.88 6 18.91 6C24.87 6 30.01 10.27 31.43 16.18L31.43 16.18C31.64 17 31.76 17.85 31.81 18.72C32.75 18.25 33.79 18 34.87 18C38.7 18 42 21.25 42 25.5C42 28.72 40.09 31.38 37.5 32.47L37.5 35.64ZM29.73 7.4C31.84 9.43 33.42 12.06 34.23 15.02C34.44 15 34.65 15 34.87 15C37.25 15 39.45 15.85 41.18 17.28C41.7 16.23 42 15.05 42 13.8C42 9.49 38.5 6 34.19 6C32.53 6 30.99 6.51 29.73 7.4ZM15.54 31.38C15.23 32.11 15 32.89 15 33.61C15 34.93 16 36 17.25 36C18.49 36 19.5 34.93 19.5 33.61C19.5 32.94 19.24 32.14 18.91 31.38C18.24 29.87 17.25 28.5 17.25 28.5C17.25 28.5 16.2 29.82 15.54 31.38ZM22.5 33.61C22.5 32.89 22.73 32.11 23.04 31.38C23.7 29.82 24.75 28.5 24.75 28.5C24.75 28.5 25.74 29.87 26.41 31.38C26.74 32.14 27 32.94 27 33.61C27 34.93 25.99 36 24.75 36C23.5 36 22.5 34.93 22.5 33.61ZM19.85 38.88C19.54 39.61 19.31 40.39 19.31 41.11C19.31 42.43 20.32 43.5 21.56 43.5C22.8 43.5 23.81 42.43 23.81 41.11C23.81 40.44 23.56 39.64 23.22 38.88C22.55 37.37 21.56 36 21.56 36C21.56 36 20.51 37.32 19.85 38.88ZM30 33.61C30 32.89 30.23 32.11 30.54 31.38C31.2 29.82 32.25 28.5 32.25 28.5C32.25 28.5 33.24 29.87 33.91 31.38C34.24 32.14 34.5 32.94 34.5 33.61C34.5 34.93 33.49 36 32.25 36C31 36 30 34.93 30 33.61ZM27.37 38.88C27.06 39.61 26.83 40.39 26.83 41.11C26.83 42.43 27.84 43.5 29.08 43.5C30.32 43.5 31.33 42.43 31.33 41.11C31.33 40.44 31.08 39.64 30.74 38.88C30.08 37.37 29.08 36 29.08 36C29.08 36 28.04 37.32 27.37 38.88Z" fill="#FFFFFF" fill-opacity="1.000000" fill-rule="evenodd"/>
	</g>
</svg>
