<svg width="48.000000" height="48.000000" viewBox="0 0 48 48" fill="none" xmlns="http://www.w3.org/2000/svg" xmlns:xlink="http://www.w3.org/1999/xlink">
	<desc>
			Created with Pixso.
	</desc>
	<defs>
		<clipPath id="clip81_5628">
			<rect id="32icon-grid" rx="0.000000" width="47.000000" height="47.000000" transform="translate(0.500000 0.500000)" fill="white" fill-opacity="0"/>
		</clipPath>
		<clipPath id="clip81_5645">
			<rect id="32/Thunderstorm" rx="0.000000" width="47.000000" height="47.000000" transform="translate(0.500000 0.500000)" fill="white" fill-opacity="0"/>
		</clipPath>
	</defs>
	<g clip-path="url(#clip81_5645)">
		<path id="outline" d="M3 19.5C3 27.21 8.1 33.68 15 35.49L15 32.36C9.82 30.64 6 25.59 6 19.5C6 11.94 11.88 6 18.91 6C24.87 6 30.01 10.27 31.43 16.18L31.43 16.18C31.64 17 31.76 17.85 31.81 18.72C32.75 18.25 33.79 18 34.87 18C38.7 18 42 21.25 42 25.5C42 29.71 38.75 32.95 34.95 32.99L34.95 33L34.5 33L34.5 35.99C34.62 35.99 34.74 35.99 34.87 35.99C40.46 35.99 45 31.29 45 25.5C45 19.7 40.46 15 34.87 15C34.65 15 34.44 15 34.23 15.02C32.34 8.08 26.2 3 18.91 3C10.12 3 3 10.38 3 19.5ZM25.75 24.66L19.75 33.66L18.19 36L21 36L25.56 36L20.78 42.62L23.21 44.37L29.71 35.37L31.43 33L28.5 33L23.8 33L28.24 26.33L25.75 24.66Z" fill="#FFFFFF" fill-opacity="1.000000" fill-rule="evenodd"/>
	</g>
</svg>
